<?xml version="1.0" encoding="UTF-8"?>
<svg viewBox="0 0 100 100" xmlns="http://www.w3.org/2000/svg">
 <defs>
  <pattern id="a" width="100" height="100" patternUnits="userSpaceOnUse">
   <path d="m7.5 5a2.5 2.5 0 1 0 -5 0 2.5 2.5 0 1 0 5 0"/>
   <path d="m17.5 5a2.5 2.5 0 1 0 -5 0 2.5 2.5 0 1 0 5 0"/>
   <path d="m27.5 5a2.5 2.5 0 1 0 -5 0 2.5 2.5 0 1 0 5 0"/>
   <path d="m37.5 5a2.5 2.5 0 1 0 -5 0 2.5 2.5 0 1 0 5 0"/>
   <path d="m47.5 5a2.5 2.5 0 1 0 -5 0 2.5 2.5 0 1 0 5 0"/>
   <path d="m57.5 5a2.5 2.5 0 1 0 -5 0 2.5 2.5 0 1 0 5 0"/>
   <path d="m67.5 5a2.5 2.5 0 1 0 -5 0 2.5 2.5 0 1 0 5 0"/>
   <path d="m77.5 5a2.5 2.5 0 1 0 -5 0 2.5 2.5 0 1 0 5 0"/>
   <path d="m87.5 5a2.5 2.5 0 1 0 -5 0 2.5 2.5 0 1 0 5 0"/>
   <path d="m97.5 5a2.5 2.5 0 1 0 -5 0 2.5 2.5 0 1 0 5 0"/>
   <path d="m7.5 15a2.5 2.5 0 1 0 -5 0 2.5 2.5 0 1 0 5 0"/>
   <path d="m17.5 15a2.5 2.5 0 1 0 -5 0 2.5 2.5 0 1 0 5 0"/>
   <path d="m27.5 15a2.5 2.5 0 1 0 -5 0 2.5 2.5 0 1 0 5 0"/>
   <path d="m37.5 15a2.5 2.5 0 1 0 -5 0 2.5 2.5 0 1 0 5 0"/>
   <path d="m47.5 15a2.5 2.5 0 1 0 -5 0 2.5 2.5 0 1 0 5 0"/>
   <path d="m57.5 15a2.5 2.5 0 1 0 -5 0 2.5 2.5 0 1 0 5 0"/>
   <path d="m67.5 15a2.5 2.5 0 1 0 -5 0 2.5 2.5 0 1 0 5 0"/>
   <path d="m77.5 15a2.5 2.5 0 1 0 -5 0 2.5 2.5 0 1 0 5 0"/>
   <path d="m87.5 15a2.5 2.5 0 1 0 -5 0 2.5 2.5 0 1 0 5 0"/>
   <path d="m97.5 15a2.5 2.5 0 1 0 -5 0 2.5 2.5 0 1 0 5 0"/>
   <path d="m7.5 25a2.5 2.5 0 1 0 -5 0 2.5 2.5 0 1 0 5 0"/>
   <path d="m17.5 25a2.5 2.5 0 1 0 -5 0 2.5 2.5 0 1 0 5 0"/>
   <path d="m27.5 25a2.5 2.5 0 1 0 -5 0 2.5 2.5 0 1 0 5 0"/>
   <path d="m37.5 25a2.5 2.5 0 1 0 -5 0 2.5 2.5 0 1 0 5 0"/>
   <path d="m47.5 25a2.5 2.5 0 1 0 -5 0 2.5 2.5 0 1 0 5 0"/>
   <path d="m57.5 25a2.5 2.5 0 1 0 -5 0 2.5 2.5 0 1 0 5 0"/>
   <path d="m67.5 25a2.5 2.5 0 1 0 -5 0 2.5 2.5 0 1 0 5 0"/>
   <path d="m77.5 25a2.5 2.5 0 1 0 -5 0 2.5 2.5 0 1 0 5 0"/>
   <path d="m87.5 25a2.5 2.5 0 1 0 -5 0 2.5 2.5 0 1 0 5 0"/>
   <path d="m97.5 25a2.5 2.5 0 1 0 -5 0 2.5 2.5 0 1 0 5 0"/>
   <path d="m7.5 35a2.5 2.5 0 1 0 -5 0 2.5 2.5 0 1 0 5 0"/>
   <path d="m17.5 35a2.5 2.5 0 1 0 -5 0 2.5 2.5 0 1 0 5 0"/>
   <path d="m27.5 35a2.5 2.5 0 1 0 -5 0 2.5 2.5 0 1 0 5 0"/>
   <path d="m37.5 35a2.5 2.5 0 1 0 -5 0 2.5 2.5 0 1 0 5 0"/>
   <path d="m47.5 35a2.5 2.5 0 1 0 -5 0 2.5 2.5 0 1 0 5 0"/>
   <path d="m57.5 35a2.5 2.5 0 1 0 -5 0 2.5 2.5 0 1 0 5 0"/>
   <path d="m67.5 35a2.5 2.5 0 1 0 -5 0 2.5 2.5 0 1 0 5 0"/>
   <path d="m77.5 35a2.5 2.5 0 1 0 -5 0 2.5 2.5 0 1 0 5 0"/>
   <path d="m87.5 35a2.5 2.5 0 1 0 -5 0 2.5 2.5 0 1 0 5 0"/>
   <path d="m97.5 35a2.5 2.5 0 1 0 -5 0 2.5 2.5 0 1 0 5 0"/>
   <path d="m7.5 45a2.5 2.5 0 1 0 -5 0 2.5 2.5 0 1 0 5 0"/>
   <path d="m17.5 45a2.5 2.5 0 1 0 -5 0 2.5 2.5 0 1 0 5 0"/>
   <path d="m27.5 45a2.5 2.5 0 1 0 -5 0 2.5 2.5 0 1 0 5 0"/>
   <path d="m37.5 45a2.5 2.5 0 1 0 -5 0 2.5 2.5 0 1 0 5 0"/>
   <path d="m47.5 45a2.5 2.5 0 1 0 -5 0 2.5 2.5 0 1 0 5 0"/>
   <path d="m57.5 45a2.5 2.5 0 1 0 -5 0 2.5 2.5 0 1 0 5 0"/>
   <path d="m67.5 45a2.5 2.5 0 1 0 -5 0 2.5 2.5 0 1 0 5 0"/>
   <path d="m77.5 45a2.5 2.5 0 1 0 -5 0 2.5 2.5 0 1 0 5 0"/>
   <path d="m87.5 45a2.5 2.5 0 1 0 -5 0 2.5 2.5 0 1 0 5 0"/>
   <path d="m97.5 45a2.5 2.5 0 1 0 -5 0 2.5 2.5 0 1 0 5 0"/>
   <path d="m7.5 55a2.5 2.5 0 1 0 -5 0 2.5 2.5 0 1 0 5 0"/>
   <path d="m17.5 55a2.5 2.5 0 1 0 -5 0 2.5 2.5 0 1 0 5 0"/>
   <path d="m27.5 55a2.5 2.5 0 1 0 -5 0 2.5 2.5 0 1 0 5 0"/>
   <path d="m37.5 55a2.5 2.5 0 1 0 -5 0 2.5 2.5 0 1 0 5 0"/>
   <path d="m47.5 55a2.5 2.5 0 1 0 -5 0 2.5 2.5 0 1 0 5 0"/>
   <path d="m57.5 55a2.5 2.5 0 1 0 -5 0 2.5 2.5 0 1 0 5 0"/>
   <path d="m67.5 55a2.5 2.5 0 1 0 -5 0 2.5 2.5 0 1 0 5 0"/>
   <path d="m77.5 55a2.5 2.5 0 1 0 -5 0 2.5 2.5 0 1 0 5 0"/>
   <path d="m87.5 55a2.5 2.5 0 1 0 -5 0 2.5 2.5 0 1 0 5 0"/>
   <path d="m97.5 55a2.5 2.5 0 1 0 -5 0 2.5 2.5 0 1 0 5 0"/>
   <path d="m7.5 65a2.5 2.5 0 1 0 -5 0 2.5 2.5 0 1 0 5 0"/>
   <path d="m17.5 65a2.5 2.5 0 1 0 -5 0 2.5 2.5 0 1 0 5 0"/>
   <path d="m27.5 65a2.5 2.5 0 1 0 -5 0 2.5 2.5 0 1 0 5 0"/>
   <path d="m37.5 65a2.5 2.5 0 1 0 -5 0 2.5 2.5 0 1 0 5 0"/>
   <path d="m47.5 65a2.5 2.5 0 1 0 -5 0 2.5 2.5 0 1 0 5 0"/>
   <path d="m57.5 65a2.5 2.5 0 1 0 -5 0 2.5 2.5 0 1 0 5 0"/>
   <path d="m67.5 65a2.5 2.5 0 1 0 -5 0 2.5 2.5 0 1 0 5 0"/>
   <path d="m77.5 65a2.5 2.5 0 1 0 -5 0 2.5 2.5 0 1 0 5 0"/>
   <path d="m87.5 65a2.5 2.5 0 1 0 -5 0 2.5 2.5 0 1 0 5 0"/>
   <path d="m97.5 65a2.5 2.5 0 1 0 -5 0 2.5 2.5 0 1 0 5 0"/>
   <path d="m7.5 75a2.5 2.5 0 1 0 -5 0 2.5 2.5 0 1 0 5 0"/>
   <path d="m17.5 75a2.5 2.5 0 1 0 -5 0 2.5 2.5 0 1 0 5 0"/>
   <path d="m27.5 75a2.5 2.5 0 1 0 -5 0 2.5 2.5 0 1 0 5 0"/>
   <path d="m37.5 75a2.5 2.5 0 1 0 -5 0 2.5 2.5 0 1 0 5 0"/>
   <path d="m47.5 75a2.5 2.5 0 1 0 -5 0 2.5 2.5 0 1 0 5 0"/>
   <path d="m57.5 75a2.5 2.5 0 1 0 -5 0 2.5 2.5 0 1 0 5 0"/>
   <path d="m67.5 75a2.5 2.5 0 1 0 -5 0 2.5 2.5 0 1 0 5 0"/>
   <path d="m77.5 75a2.5 2.5 0 1 0 -5 0 2.5 2.5 0 1 0 5 0"/>
   <path d="m87.5 75a2.5 2.5 0 1 0 -5 0 2.5 2.5 0 1 0 5 0"/>
   <path d="m97.5 75a2.5 2.5 0 1 0 -5 0 2.5 2.5 0 1 0 5 0"/>
   <path d="m7.5 85a2.5 2.5 0 1 0 -5 0 2.5 2.5 0 1 0 5 0"/>
   <path d="m17.5 85a2.5 2.5 0 1 0 -5 0 2.5 2.5 0 1 0 5 0"/>
   <path d="m27.5 85a2.5 2.5 0 1 0 -5 0 2.5 2.5 0 1 0 5 0"/>
   <path d="m37.5 85a2.5 2.5 0 1 0 -5 0 2.5 2.5 0 1 0 5 0"/>
   <path d="m47.5 85a2.5 2.5 0 1 0 -5 0 2.5 2.5 0 1 0 5 0"/>
   <path d="m57.5 85a2.5 2.5 0 1 0 -5 0 2.5 2.5 0 1 0 5 0"/>
   <path d="m67.5 85a2.5 2.5 0 1 0 -5 0 2.5 2.5 0 1 0 5 0"/>
   <path d="m77.5 85a2.5 2.5 0 1 0 -5 0 2.5 2.5 0 1 0 5 0"/>
   <path d="m87.5 85a2.5 2.5 0 1 0 -5 0 2.5 2.5 0 1 0 5 0"/>
   <path d="m97.5 85a2.5 2.5 0 1 0 -5 0 2.5 2.5 0 1 0 5 0"/>
   <path d="m7.5 95a2.5 2.5 0 1 0 -5 0 2.5 2.5 0 1 0 5 0"/>
   <path d="m17.5 95a2.5 2.5 0 1 0 -5 0 2.5 2.5 0 1 0 5 0"/>
   <path d="m27.5 95a2.5 2.5 0 1 0 -5 0 2.5 2.5 0 1 0 5 0"/>
   <path d="m37.5 95a2.5 2.5 0 1 0 -5 0 2.5 2.5 0 1 0 5 0"/>
   <path d="m47.5 95a2.5 2.5 0 1 0 -5 0 2.5 2.5 0 1 0 5 0"/>
   <path d="m57.5 95a2.5 2.5 0 1 0 -5 0 2.5 2.5 0 1 0 5 0"/>
   <path d="m67.5 95a2.5 2.5 0 1 0 -5 0 2.5 2.5 0 1 0 5 0"/>
   <path d="m77.5 95a2.5 2.5 0 1 0 -5 0 2.5 2.5 0 1 0 5 0"/>
   <path d="m87.5 95a2.5 2.5 0 1 0 -5 0 2.5 2.5 0 1 0 5 0"/>
   <path d="m97.5 95a2.5 2.5 0 1 0 -5 0 2.5 2.5 0 1 0 5 0"/>
  </pattern>
 </defs>
 <path d="m0 0h100v100h-100z" fill="url(#a)"/>
</svg>
